{
	"asset":{
		"generator":"Khronos glTF Blender I/O v4.1.63",
		"version":"2.0"
	},
	"scene":0,
	"scenes":[
		{
			"name":"Scene",
			"nodes":[
				0,
				1,
				2,
				3,
				4
			]
		}
	],
	"nodes":[
		{
			"mesh":0,
			"name":"Sphere.004",
			"scale":[
				0.9756500720977783,
				0.9756500720977783,
				0.9951232671737671
			],
			"translation":[
				0,
				-1.5,
				0
			]
		},
		{
			"name":"Mesh"
		},
		{
			"name":"Mesh.001"
		},
		{
			"name":"Mesh.002"
		},
		{
			"name":"Mesh.003"
		}
	],
	"materials":[
		{
			"doubleSided":true,
			"name":"Material",
			"pbrMetallicRoughness":{
				"baseColorFactor":[
					0.800000011920929,
					0.800000011920929,
					0.800000011920929,
					1
				],
				"metallicFactor":0,
				"roughnessFactor":0.5
			}
		},
		{
			"doubleSided":true,
			"name":"Material.001",
			"pbrMetallicRoughness":{
				"baseColorFactor":[
					0,
					0,
					0,
					1
				],
				"metallicFactor":0,
				"roughnessFactor":0.5
			}
		},
		{
			"doubleSided":true,
			"name":"Fur 01",
			"normalTexture":{
				"index":0,
				"texCoord":1
			},
			"pbrMetallicRoughness":{
				"baseColorTexture":{
					"index":1,
					"texCoord":1
				},
				"metallicFactor":0,
				"metallicRoughnessTexture":{
					"index":2,
					"texCoord":1
				}
			}
		}
	],
	"meshes":[
		{
			"name":"Sphere.007",
			"primitives":[
				{
					"attributes":{
						"POSITION":0,
						"NORMAL":1,
						"TEXCOORD_0":2,
						"TEXCOORD_1":3
					},
					"indices":4,
					"material":0
				},
				{
					"attributes":{
						"POSITION":5,
						"NORMAL":6,
						"TEXCOORD_0":7,
						"TEXCOORD_1":8
					},
					"indices":9,
					"material":1
				},
				{
					"attributes":{
						"POSITION":10,
						"NORMAL":11,
						"TEXCOORD_0":12,
						"TEXCOORD_1":13
					},
					"indices":14,
					"material":2
				}
			]
		}
	],
	"textures":[
		{
			"sampler":0,
			"source":0
		},
		{
			"sampler":0,
			"source":1
		},
		{
			"sampler":0,
			"source":2
		}
	],
	"images":[
		{
			"mimeType":"image/jpeg",
			"name":"Fur 01_Normal",
			"uri":"Fur%2001_Normal.jpg"
		},
		{
			"mimeType":"image/jpeg",
			"name":"Fur 01_BaseColor",
			"uri":"Fur%2001_BaseColor.jpg"
		},
		{
			"mimeType":"image/png",
			"name":"Fur 01_Roughness",
			"uri":"Fur%2001_Roughness.png"
		}
	],
	"accessors":[
		{
			"bufferView":0,
			"componentType":5126,
			"count":2251,
			"max":[
				0.41464197635650635,
				2.1244492530822754,
				0.9078704118728638
			],
			"min":[
				-0.38870251178741455,
				1.6793659925460815,
				0.4627872705459595
			],
			"type":"VEC3"
		},
		{
			"bufferView":1,
			"componentType":5126,
			"count":2251,
			"type":"VEC3"
		},
		{
			"bufferView":2,
			"componentType":5126,
			"count":2251,
			"type":"VEC2"
		},
		{
			"bufferView":3,
			"componentType":5126,
			"count":2251,
			"type":"VEC2"
		},
		{
			"bufferView":4,
			"componentType":5123,
			"count":11520,
			"type":"SCALAR"
		},
		{
			"bufferView":5,
			"componentType":5126,
			"count":18891,
			"max":[
				0.22990955412387848,
				1.9279227256774902,
				1.184241771697998
			],
			"min":[
				-0.22990955412387848,
				1.3880159854888916,
				0.8279381990432739
			],
			"type":"VEC3"
		},
		{
			"bufferView":6,
			"componentType":5126,
			"count":18891,
			"type":"VEC3"
		},
		{
			"bufferView":7,
			"componentType":5126,
			"count":18891,
			"type":"VEC2"
		},
		{
			"bufferView":8,
			"componentType":5126,
			"count":18891,
			"type":"VEC2"
		},
		{
			"bufferView":9,
			"componentType":5123,
			"count":106752,
			"type":"SCALAR"
		},
		{
			"bufferView":10,
			"componentType":5126,
			"count":22145,
			"max":[
				1.2519028186798096,
				3.119180202484131,
				1.08329439163208
			],
			"min":[
				-1.2129521369934082,
				0.7390215396881104,
				-0.9363851547241211
			],
			"type":"VEC3"
		},
		{
			"bufferView":11,
			"componentType":5126,
			"count":22145,
			"type":"VEC3"
		},
		{
			"bufferView":12,
			"componentType":5126,
			"count":22145,
			"type":"VEC2"
		},
		{
			"bufferView":13,
			"componentType":5126,
			"count":22145,
			"type":"VEC2"
		},
		{
			"bufferView":14,
			"componentType":5123,
			"count":127488,
			"type":"SCALAR"
		}
	],
	"bufferViews":[
		{
			"buffer":0,
			"byteLength":27012,
			"byteOffset":0,
			"target":34962
		},
		{
			"buffer":0,
			"byteLength":27012,
			"byteOffset":27012,
			"target":34962
		},
		{
			"buffer":0,
			"byteLength":18008,
			"byteOffset":54024,
			"target":34962
		},
		{
			"buffer":0,
			"byteLength":18008,
			"byteOffset":72032,
			"target":34962
		},
		{
			"buffer":0,
			"byteLength":23040,
			"byteOffset":90040,
			"target":34963
		},
		{
			"buffer":0,
			"byteLength":226692,
			"byteOffset":113080,
			"target":34962
		},
		{
			"buffer":0,
			"byteLength":226692,
			"byteOffset":339772,
			"target":34962
		},
		{
			"buffer":0,
			"byteLength":151128,
			"byteOffset":566464,
			"target":34962
		},
		{
			"buffer":0,
			"byteLength":151128,
			"byteOffset":717592,
			"target":34962
		},
		{
			"buffer":0,
			"byteLength":213504,
			"byteOffset":868720,
			"target":34963
		},
		{
			"buffer":0,
			"byteLength":265740,
			"byteOffset":1082224,
			"target":34962
		},
		{
			"buffer":0,
			"byteLength":265740,
			"byteOffset":1347964,
			"target":34962
		},
		{
			"buffer":0,
			"byteLength":177160,
			"byteOffset":1613704,
			"target":34962
		},
		{
			"buffer":0,
			"byteLength":177160,
			"byteOffset":1790864,
			"target":34962
		},
		{
			"buffer":0,
			"byteLength":254976,
			"byteOffset":1968024,
			"target":34963
		}
	],
	"samplers":[
		{
			"magFilter":9729,
			"minFilter":9987
		}
	],
	"buffers":[
		{
			"byteLength":2223000,
			"uri":"Head.bin"
		}
	]
}
